PathFileType	4	(X/Y/Z)	C:/Users/beibeiliu/ov580/test_trc\sequence.2_training_dense_right.trc
DataRate	CameraRate	NumFrames	NumMarkers	Units	OrigDataRate	OrigDataStartFrame	OrigNumFrames
120	120	16	19	mm	120	235	313
Frame#	Time	ThumbCMC			ThumbMCP			ThumbIP			ThumbTip			IndexMCP			IndexPIP			IndexTip			MiddleMCP			MiddlePIP			MiddleTip			RingMCP			RingPIP			RingTip			PinkyMCP			PinkyPIP			PinkyTip			BackHand1			BackHand2			BackHand3	
		X0	Y0	Z0	X1	Y1	Z1	X2	Y2	Z2	X3	Y3	Z3	X4	Y4	Z4	X5	Y5	Z5	X6	Y6	Z6	X7	Y7	Z7	X8	Y8	Z8	X9	Y9	Z9	X10	Y10	Z10	X11	Y11	Z11	X12	Y12	Z12	X13	Y13	Z13	X14	Y14	Z14	X15	Y15	Z15	X16	Y16	Z16	X17	Y17	Z17	X18	Y18	Z18	
234	1.95	170.973	-43.1321	-6.76084	177.971	-70.3409	-27.7381	185.882	-85.8499	-46.1525	202.525	-91.7707	-59.8948	177.23	-50.9649	-72.6755	186.588	-75.898	-65.8282	185.046	-72.8177	-35.8284	195.103	-46.4916	-72.8922	200.9	-75.6626	-68.8127	200.181	-72.462	-33.9914	211.964	-47.5035	-65.4381	216.455	-73.112	-56.8939	208.3	-78.6156	-26.8183	230.736	-44.3014	-53.5246	222.887	-65.3261	-47.7132	211.074	-71.2722	-28.545	206.065	-7.61002	-33.0401	203.247	-2.13935	-6.95943	180.354	-11.8813	-19.729	
235	1.95833	170.959	-42.7303	-11.0724	174.507	-71.1046	-24.6678	182.481	-87.97	-44.6984	199.215	-98.2548	-57.2987	175.255	-53.8174	-69.6335	182.174	-80.2431	-61.7317	188.198	-72.8759	-36.6522	196.013	-52.5982	-72.1436	201.249	-81.1349	-60.516	199.734	-72.9826	-32.4542	214.798	-51.2344	-62.4139	216.58	-77.2856	-52.7051	208.989	-77.7372	-25.5661	227.551	-48.5565	-52.9265	223.876	-72.3781	-39.0815	212.332	-70.0517	-21.9423	206.827	-11.6194	-32.6855	206.842	-4.46589	-8.02873	182.497	-11.4366	-22.3492	
236	1.96667	170.037	-37.8989	-10.163	168.883	-67.19	-21.2892	177.983	-84.0054	-41.5823	196.148	-95.8173	-54.1588	177.862	-52.2714	-69.3583	176.819	-79.0358	-60.7507	178.685	-70.157	-31.0902	196.29	-55.78	-70.1004	195.019	-82.8684	-59.3683	196.168	-67.9058	-27.394	214.533	-60.1634	-61.4126	211.28	-81.8847	-47.8417	202.501	-75.7699	-22.7904	225.573	-59.0374	-52.3187	216.559	-74.6466	-38.4076	204.278	-65.0295	-17.1397	217.231	-16.6357	-34.2825	212.806	-6.88212	-5.81405	188.336	-11.6041	-24.0275	
237	1.975	169.381	-31.8581	-10.441	161.592	-62.9199	-21.5964	168.043	-80.6401	-38.0437	184.789	-95.7131	-48.4261	176.153	-49.2788	-68.7069	174.465	-76.2055	-61.834	177.543	-69.0069	-29.1596	193.537	-60.1982	-70.2459	188.968	-84.4445	-53.8813	189.224	-68.4059	-25.1866	209.203	-66.1059	-60.6393	200.213	-83.0911	-45.6096	196.82	-75.4535	-19.4789	223.321	-64.5072	-49.7666	211.751	-80.5668	-33.2956	201.035	-65.3359	-17.2105	216.905	-18.6059	-36.2517	216.735	-7.93058	-9.98515	193.022	-7.60647	-23.5084	
238	1.98333	171.864	-25.7239	-6.88854	160.487	-56.3891	-18.5302	156.885	-78.3427	-31.8327	169.729	-97.3725	-41.5463	172.877	-49.5816	-67.6304	161.113	-73.2581	-59.9269	167.248	-70.2795	-29.9443	188.362	-60.3972	-68.3607	180.802	-85.6038	-50.5909	180.988	-74.0328	-24.6999	202.579	-67.9072	-59.1578	192.179	-86.4259	-43.0192	188.443	-73.2068	-14.6173	218.603	-72.1254	-47.068	201.933	-82.3561	-35.145	190.933	-68.2857	-15.356	218.866	-22.6849	-35.1972	224.052	-13.8545	-9.25934	196.212	-8.27031	-26.4075	
239	1.99167	170.22	-24.9608	-8.99886	157.459	-51.2127	-13.8767	150.171	-73.3518	-23.9128	160.457	-97.3881	-36.1905	163.793	-45.8759	-64.6471	153.835	-70.8189	-56.7788	158.676	-69.8109	-26.1281	181.677	-61.6075	-66.4235	170.513	-86.1454	-54.1244	168.475	-76.3029	-22.0237	194.554	-74.422	-56.8802	180.673	-87.6803	-37.6778	179.617	-75.7829	-11.5054	212.1	-75.7992	-44.7304	192.643	-84.1152	-32.9661	185.368	-69.8732	-9.8443	216.497	-31.8686	-37.7251	222.981	-18.4909	-13.5694	200.378	-11.026	-24.3538	
240	2	176.756	-22.543	-8.18006	151.149	-47.5674	-10.8635	144.715	-66.9438	-18.5515	146.604	-92.4896	-25.8453	161.478	-49.1051	-63.6382	147.22	-70.0793	-49.8712	149.954	-67.0937	-23.9271	174.43	-64.545	-64.8111	157.384	-82.783	-53.4703	154.929	-79.4817	-18.9109	185.729	-74.809	-52.6389	168.397	-85.3509	-33.4308	166.803	-76.1799	-11.6514	199.571	-84.3848	-41.4608	181.594	-85.434	-28.2498	176.894	-70.1071	-9.59249	220.064	-38.6329	-35.4617	230.812	-24.814	-12.2986	204.441	-14.2381	-28.6202	
241	2.00833	178.338	-19.7614	-9.45534	149.939	-43.6922	-11.1198	143.984	-64.9062	-19.8646	147.888	-89.0993	-26.0997	157.793	-46.4	-59.7622	139.612	-63.6844	-49.366	138.965	-62.5342	-20.1385	166.819	-64.328	-59.8731	145.098	-79.628	-49.87	139.06	-88.1185	-21.8305	176.117	-76.6259	-48.3163	158.34	-83.8375	-26.9234	160.225	-76.1812	-4.06085	190.771	-85.1228	-37.4932	172.078	-85.1651	-22.1961	168.3	-67.6364	-1.44892	217.319	-44.3941	-36.768	227.727	-31.8368	-14.4021	205.966	-19.5414	-31.0285	
242	2.01667	179.555	-20.0763	-10.4811	152.868	-39.375	-11.7991	137.819	-59.305	-18.3693	139.817	-81.0908	-22.9664	154.457	-42.6273	-57.4852	132.832	-58.8065	-45.0463	130.821	-61.9167	-16.5193	160.999	-65.6061	-54.7093	134.309	-75.6492	-42.5696	125.78	-83.7305	-18.8357	169.709	-77.5258	-42.0477	148.798	-79.745	-21.9529	151.312	-71.4677	5.51619	182.413	-88.0984	-32.3978	161.442	-84.7416	-14.7906	156.429	-66.487	2.19244	209.739	-52.5516	-36.1369	228.292	-40.9884	-14.2224	208.085	-23.5111	-27.4658	
243	2.025	181.445	-16.5911	-6.03118	150.355	-33.7057	-8.57543	135.917	-53.4789	-17.5001	129.642	-76.7174	-21.713	146.783	-44.9792	-54.1706	126.912	-52.1664	-40.3709	122.557	-55.0423	-12.9847	156.281	-63.6766	-51.1125	130.472	-72.8852	-40.2262	116.938	-75.032	-12.5946	159.624	-74.8928	-37.4753	142.181	-73.9361	-18.4792	141.935	-65.518	5.11178	172.055	-84.5236	-29.1889	153.233	-80.1516	-13.3823	151.218	-66.4587	1.55389	206.949	-60.263	-35.0945	223.757	-46.6333	-14.3729	206.33	-26.3961	-29.2981	
244	2.03333	183.8	-17.0381	-4.97267	151.046	-31.1952	-8.43704	131.29	-48.1891	-15.9826	122.779	-69.4139	-18.4322	146.611	-42.5559	-50.9632	123.392	-46.8511	-36.3568	119.938	-46.3436	-7.09723	149.775	-58.8849	-49.211	124.357	-66.2664	-34.9732	111.317	-63.1308	-6.79341	152.706	-75.1325	-34.296	136.067	-72.8351	-14.49	137.529	-57.2261	11.4232	163.678	-86.3278	-24.4455	145.838	-76.7054	-10.7108	145.589	-59.0483	8.72892	204.232	-60.3448	-31.8809	221.167	-52.5253	-11.7191	203.663	-31.6616	-30.8996	
245	2.04167	185.628	-17.6403	-5.71101	150.59	-26.2251	-8.21423	132.522	-38.3049	-12.7565	119.85	-60.1986	-14.7858	146.843	-38.4039	-49.7647	122.793	-36.5738	-37.0566	119.4	-38.1434	-5.36819	143.168	-59.5294	-46.6651	119.428	-58.1598	-33.8029	106.296	-52.8948	-8.4966	146.543	-73.6456	-30.5548	129.156	-62.4492	-11.0242	132.914	-53.4846	10.602	151.633	-84.2375	-18.9755	139.179	-71.7924	-7.55205	140.385	-53.06	7.90631	195.258	-66.9265	-29.9888	218.074	-57.838	-9.52735	204.211	-35.7432	-26.8029	
246	2.05	183.864	-16.7782	-8.13929	148.849	-21.0694	-9.34982	130.24	-33.1651	-13.1916	115.121	-53.7653	-15.7852	144.031	-35.7902	-48.9026	118.752	-30.3234	-33.6618	116.407	-27.603	-7.93555	136.903	-55.5988	-45.4974	112.841	-51.9754	-32.0929	102.36	-39.6034	-5.79427	140.182	-64.4509	-31.1166	122.325	-56.7915	-9.36076	128.522	-45.4448	12.4372	145.988	-79.3286	-18.3652	131.591	-68.2518	-8.13362	134.565	-45.5763	10.3462	190.501	-72.2014	-26.3751	212.133	-64.1638	-7.29332	202.458	-39.0676	-26.1501	
247	2.05833	182.98	-17.2064	-8.7503	147.621	-17.1382	-11.8873	126.142	-26.7957	-16.7568	107.443	-43.0093	-19.15	142.628	-31.5089	-51.1566	118.216	-25.0376	-35.192	118.186	-17.7474	-7.05861	134.98	-50.3862	-46.4154	109.201	-42.6808	-35.1704	98.4588	-31.2042	-11.6756	130.363	-63.8319	-29.4805	116.977	-52.3002	-10.8733	123.186	-36.9024	10.2462	135.141	-77.9842	-16.4269	123.916	-60.5189	-7.46219	129.867	-43.8548	9.49139	184.689	-72.9079	-20.3173	204.308	-64.954	-5.80486	198.404	-44.5565	-27.5593	
248	2.06667	182.276	-21.0133	-9.20654	150.053	-14.9714	-15.3413	125.963	-24.1509	-24.4981	105.616	-36.8627	-26.2296	141.213	-32.2776	-53.5581	118.354	-24.8396	-42.2304	114.621	-15.8724	-15.4878	129.03	-51.7513	-47.6393	107.166	-37.7934	-40.5253	95.1104	-24.8825	-17.4194	129.239	-61.4424	-31.7268	112.562	-46.5114	-20.6991	115.46	-29.1183	3.14607	130.034	-75.6479	-17.0479	117.89	-56.9412	-8.99649	126.183	-36.5277	7.25191	178.051	-75.3004	-19.336	198.102	-73.9977	-0.630724	193.026	-51.0841	-23.5121	
249	2.075	182.791	-25.0044	-9.21971	149.605	-16.4211	-23.4444	129.466	-22.5809	-30.5338	106.33	-35.5486	-34.7402	139.621	-34.7358	-56.9562	119.02	-20.486	-49.0002	112.109	-11.8668	-24.2916	127.096	-51.6345	-51.2904	106.934	-36.2053	-48.1401	91.6274	-19.8924	-23.9835	122.281	-59.7307	-35.689	106.04	-43.4472	-25.5235	105.996	-24.2617	-7.16735	124.241	-70.5731	-20.5507	110.466	-55.3798	-10.385	123.389	-32.6179	0.229305	172.376	-74.9706	-18.5952	191.683	-73.2651	3.67889	190.775	-57.9018	-20.0823	
